<?xml version="1.0" standalone="no"?>
<!DOCTYPE svg PUBLIC "-//W3C//DTD SVG 20010904//EN"
 "http://www.w3.org/TR/2001/REC-SVG-20010904/DTD/svg10.dtd">
<svg version="1.0" xmlns="http://www.w3.org/2000/svg"
 width="344.000000pt" height="344.000000pt" viewBox="0 0 344.000000 344.000000"
 preserveAspectRatio="xMidYMid meet">
<metadata>
Created by potrace 1.14, written by Peter Selinger 2001-2017
</metadata>
<g transform="translate(0.000000,344.000000) scale(0.100000,-0.100000)"
fill="#000000" stroke="none">
<path d="M155 2883 c-63 -14 -104 -48 -137 -112 -17 -33 -18 -96 -18 -978 0
-999 -1 -963 48 -1030 46 -62 88 -73 274 -73 l166 0 6 -32 c17 -88 98 -199
181 -250 157 -96 356 -80 492 40 49 44 110 140 125 199 l10 42 410 0 c226 0
412 2 415 5 3 3 5 464 5 1025 l0 1020 -24 43 c-12 23 -43 56 -66 73 l-44 30
-911 1 c-502 1 -921 0 -932 -3z m833 -1867 c101 -36 171 -129 179 -240 16
-209 -196 -353 -392 -267 -202 89 -204 399 -4 494 62 29 155 35 217 13z"/>
<path d="M2270 1551 l0 -861 40 0 c25 0 40 -5 41 -12 3 -56 49 -145 102 -201
220 -231 591 -145 691 161 l18 52 61 0 c80 0 140 31 182 91 l30 44 3 379 c2
239 -1 398 -8 428 -19 89 -78 190 -240 408 -176 236 -231 294 -317 337 l-58
28 -272 3 -273 3 0 -860z m544 699 c66 -33 91 -61 258 -284 147 -195 206 -291
223 -357 l6 -26 -316 0 c-315 -1 -317 -1 -343 22 l-27 23 0 321 0 321 79 0
c60 0 90 -5 120 -20z m61 -1250 c86 -42 155 -149 155 -240 0 -112 -84 -230
-189 -265 -171 -56 -345 60 -356 239 -12 209 203 356 390 266z"/>
</g>
</svg>
